# xmcd
# 
# Track frame offsets:
#     150
#     20457
#     41185
#     60290
#     81217
#     103387
#     123760
#     144862
#     164927
#     186792
#     209695
#     228355
#     249937
#     271007
# 
# Disc length: 4044
# 
# Revision: 9
# Processed by: cddbd v1.5.2PL0 Copyright (c) Steve Scherf et al.
# Submitted via: fre:ac v1.0.31
# 
DISCID=c00fca0e
DTITLE=Pieces Of A Dream - Love's Silhouette
DYEAR=2002
DGENRE=Jazz
TTITLE0=Turning It Up
TTITLE1=Love's Silhouette
TTITLE2=Mission Possible
TTITLE3=I Feel Like Singin'
TTITLE4=Tonight's The Night
TTITLE5=Nice and Easy
TTITLE6=Mystical Perception
TTITLE7=Pieceful Dreams
TTITLE8=Savoir Faire
TTITLE9=Enmascarada
TTITLE10=Let's Roll
TTITLE11=Remembrance (9_11_01)
TTITLE12=Slither
TTITLE13=My Funny Valentine
EXTD=
EXTT0=
EXTT1=
EXTT2=
EXTT3=
EXTT4=
EXTT5=
EXTT6=
EXTT7=
EXTT8=
EXTT9=
EXTT10=
EXTT11=
EXTT12=
EXTT13=
PLAYORDER=
